<svg width="27" height="17" fill="none" xmlns="http://www.w3.org/2000/svg"><g clip-path="url(#clip0)"><path d="M26.216 14.28a1.78 1.78 0 00-.09-.171c-.457-.824-1.33-1.835-2.62-3.033l-.028-.028-.014-.013-.013-.014h-.014c-.586-.558-.956-.933-1.112-1.125-.284-.366-.347-.737-.192-1.112.11-.284.522-.882 1.235-1.797.375-.485.672-.874.892-1.167 1.583-2.104 2.269-3.448 2.058-4.034l-.082-.137c-.054-.082-.196-.158-.425-.226-.229-.069-.521-.08-.878-.034l-3.952.027a.513.513 0 00-.275.007l-.178.041-.069.034-.054.042a.612.612 0 00-.151.144.942.942 0 00-.137.24 22.413 22.413 0 01-1.469 3.087c-.338.567-.65 1.06-.933 1.475-.284.416-.521.723-.713.92a4.964 4.964 0 01-.522.473c-.155.119-.274.17-.357.15a6.34 6.34 0 01-.233-.054.912.912 0 01-.309-.336 1.504 1.504 0 01-.157-.535 5.863 5.863 0 01-.048-.556c-.005-.156-.003-.375.007-.659.009-.284.013-.476.013-.576 0-.348.007-.725.02-1.132l.035-.968c.01-.237.014-.49.014-.754 0-.266-.017-.474-.048-.625a2.132 2.132 0 00-.144-.439.74.74 0 00-.281-.33 1.586 1.586 0 00-.46-.185C14.047.77 13.43.711 12.679.702c-1.701-.018-2.794.092-3.28.33-.191.1-.365.237-.52.411-.165.201-.188.311-.07.33.55.082.938.278 1.167.59l.082.164c.065.12.129.33.193.631.064.302.105.636.123 1.002.046.668.046 1.24 0 1.715-.046.476-.09.846-.13 1.112-.042.265-.103.48-.186.645a2.715 2.715 0 01-.164.301.236.236 0 01-.069.069 1.028 1.028 0 01-.37.069c-.129 0-.284-.064-.467-.192a3.293 3.293 0 01-.57-.529 7.063 7.063 0 01-.665-.94 16.4 16.4 0 01-.768-1.427l-.22-.398a34.232 34.232 0 01-.562-1.118c-.238-.49-.449-.963-.632-1.42a.905.905 0 00-.329-.44l-.069-.04a.939.939 0 00-.22-.117 1.444 1.444 0 00-.315-.09l-3.76.028c-.384 0-.645.087-.782.26l-.055.083A.444.444 0 000 1.95c0 .1.027.224.082.37a45.281 45.281 0 001.791 3.732c.645 1.199 1.205 2.164 1.68 2.895a35.04 35.04 0 001.455 2.073c.494.65.822 1.065.982 1.248.16.184.286.32.377.412l.343.33c.22.219.542.482.967.788.426.307.897.609 1.414.906a7.65 7.65 0 001.804.727 6.24 6.24 0 002.004.227h1.578c.32-.028.562-.128.727-.302l.055-.069a.91.91 0 00.103-.254c.032-.114.048-.24.048-.377-.01-.393.02-.748.089-1.063.068-.316.146-.553.233-.714a1.75 1.75 0 01.295-.404c.11-.11.188-.177.234-.2a.908.908 0 01.11-.047c.219-.074.477-.003.775.213.297.214.576.48.837.795.26.316.574.67.94 1.064.366.393.686.686.96.878l.274.165c.184.11.422.21.715.302.292.091.548.114.768.068l3.512-.055c.348 0 .618-.057.81-.171.192-.115.306-.24.343-.377a1.06 1.06 0 00.007-.467 1.722 1.722 0 00-.096-.364z" fill="#fff"/></g><defs><clipPath id="clip0"><path fill="#fff" transform="translate(0 .7)" d="M0 0h26.355v15.813H0z"/></clipPath></defs></svg>